<?xml version="1.0" encoding="UTF-8"?>
<svg id="Layer_2" data-name="Layer 2" xmlns="http://www.w3.org/2000/svg" viewBox="0 0 1125.51 296.87">
  <defs>
    <style>
      .cls-1 {
        fill: #60a8d6;
        stroke-width: 0px;
      }
    </style>
  </defs>
  <g id="Layer_1-2" data-name="Layer 1">
    <g>
      <g>
        <path class="cls-1" d="M349.95,193.09c58.14-.01,116.29-.02,174.43-.03,20.4,0,40.79.02,61.19-.11,2.99-.02,3.87.9,3.83,3.85-.16,9.92-.14,19.84,0,29.76.03,2.63-.7,3.49-3.42,3.49-82.18-.1-164.36-.12-246.53-.1-2.3,0-3.14-.57-3.11-3.01.12-10.26.04-20.52.07-30.77,0-1.06-.42-2.32.89-3.01,4.22-.02,8.44-.04,12.66-.06Z"/>
        <path class="cls-1" d="M962.37,141.55c-.14.17-.36.32-.41.52-3.69,15.92-14.84,22.77-30.01,24.81-3.7.5-7.39.77-11.11.77-19.16,0-38.31,0-57.47-.05-6.46-.02-12.8-.96-18.95-2.99-9.92-3.29-16.37-9.97-19.41-19.98-.38-1.26-.33-2.7-1.29-3.77-2.32-17.86-1.8-35.78-.78-53.67,1.06-18.56,11.65-29.55,30.05-32.15,5.82-.82,11.65-1.21,17.51-1.2,15.56,0,31.12-.03,46.68.02,6.53.02,13.04.41,19.46,1.84,16.23,3.6,25.06,13.25,26.44,29.85,1.4,16.87,1.18,33.77.05,50.66-.12,1.79-.49,3.56-.75,5.35ZM932.5,141.57c3.99-2.58,5.19-6.69,5.59-11.01,1.09-11.81.88-23.67.32-35.48-.65-13.66-5.26-17.83-19.04-18.11-11.5-.23-23-.14-34.5-.07-7.55.04-15.11-.42-22.64.42-8.68.96-13.11,4.73-13.97,13.32-1.33,13.24-.94,26.56-.17,39.84.26,4.42,1.9,8.32,5.58,11.1,3.09,2.94,7.12,3.38,10.96,3.42,18.98.17,37.97.18,56.95,0,3.83-.04,7.88-.42,10.93-3.42Z"/>
        <path class="cls-1" d="M684.36,167.86c-15.22,0-30.44,0-45.66,0-4.85,0-5.66-.83-5.7-5.7-.03-3.95-.05-7.89,0-11.84.06-4.35,1.04-5.3,5.47-5.3,27.28-.01,54.57,0,81.85-.02,1.79,0,3.59.12,5.35-.52,2.56-.93,4.2-2.62,4.66-5.29.73-4.25.77-8.54,0-12.78-.64-3.59-2.75-5.53-6.48-5.71-4.61-.23-9.24-.16-13.86-.18-17.25-.08-34.51.36-51.73-.37-15.72-.66-23.53-8.56-25.09-24.18-.68-6.81-.73-13.74.25-20.58,1.7-11.85,9.45-19.43,21.41-20.88,3.24-.39,6.51-.59,9.77-.59,26.83-.05,53.66-.03,80.49-.02,5.99,0,6.48.5,6.49,6.58,0,3.72.02,7.44,0,11.16-.04,4.36-.79,5.16-5.14,5.17-14.09.03-28.18.01-42.28.01-11.84,0-23.68,0-35.51,0-8.4,0-10.54,2.16-10.54,10.68,0,2.25,0,4.53.35,6.74.53,3.41,2.68,5.38,6.14,5.75,1.56.17,3.15.17,4.73.17,18.71.01,37.43,0,56.14,0,3.84,0,7.66.21,11.42,1.12,11.43,2.75,18.19,11.28,18.84,24.18.3,6.07.34,12.18.07,18.26-.64,14.47-10.64,23.66-26.1,24.06-7.55.19-15.11.08-22.66.09-7.55.01-15.11,0-22.66,0Z"/>
        <path class="cls-1" d="M474.35,95.58c0-11.95,0-23.91,0-35.86,0-5.09.71-5.77,5.91-5.78,4.4-.01,8.8-.01,13.19,0,5.16.02,5.92.76,5.93,5.81,0,20.52-.01,41.04.02,61.57,0,2.92.02,5.89.44,8.77,1.45,9.73,5.9,13.67,15.74,14.28.45.03.9.06,1.35.06,17.7,0,35.41.16,53.11-.08,10.88-.15,15.55-4.74,16.69-15.5.27-2.57.32-5.18.32-7.77.03-20.41.01-40.82.02-61.23,0-5.3.67-5.94,6.1-5.95,4.74,0,9.47-.05,14.21.01,3.76.05,4.69.92,4.69,4.55-.01,24.24-.04,48.49-.16,72.73-.02,4.74-.92,9.42-2.32,13.95-4.24,13.69-14.6,19.63-27.87,21.7-3.44.54-6.95.84-10.43.85-18.72.08-37.44.05-56.15.02-4.98,0-9.9-.64-14.73-1.82-15.01-3.67-23.12-12.81-25.21-28.09-.68-4.94-.81-9.88-.84-14.84-.06-9.13-.02-18.27-.02-27.4Z"/>
        <path class="cls-1" d="M407.64,122.06c-14.32,0-28.64.09-42.96-.08-2.93-.04-3.47.86-3.43,3.58.16,12.17.1,24.35.1,36.53,0,5.13-.54,5.66-5.58,5.67-4.96.01-9.92-.06-14.88.02-3.1.06-4.52-1.19-4.51-4.4.09-23.9.04-47.8.17-71.71.03-4.96.94-9.85,2.38-14.63,4.09-13.57,14.16-19.66,27.33-21.82,6.24-1.03,12.54-1.29,18.86-1.29,21.87.02,43.75,0,65.62,0,5.79,0,6.4.62,6.4,6.36,0,3.72.02,7.44,0,11.16-.03,4.5-.81,5.3-5.37,5.31-22.32.02-44.65.01-66.97.01-4.18,0-8.33.1-12.43,1.11-5.21,1.28-8.43,4.51-9.85,9.63-1.13,4.07-1.1,8.24-1.23,12.42-.07,2.45,1.58,1.98,2.97,1.98,17.93,0,35.85-.02,53.78-.03,10.94,0,21.87-.02,32.81,0,4.52,0,5.31.82,5.36,5.32.03,3.04.02,6.09,0,9.13-.03,5.06-.73,5.74-5.95,5.74-14.21,0-28.41,0-42.62,0v-.02Z"/>
        <path class="cls-1" d="M800.82,141.63c-.05,7.08-.1,14.15-.16,21.23-.04,4.1-.66,4.78-4.65,4.8-6.18.02-12.36-.04-18.55-.07-1.45-1-1.81-2.42-1.81-4.12.04-35.04.06-70.08.02-105.12,0-3.24,1.61-4.48,4.55-4.5,5.07-.03,10.14-.04,15.21,0,4.49.03,5.31.85,5.31,5.31.03,27.49.05,54.98.07,82.47Z"/>
        <path class="cls-1" d="M733.89,215.5c-3.72,0-7.44-.1-11.15.06-1.26.05-3.35-1.1-3.69.98-.39,2.34-.01,4.79,2.64,6.02,1.28.59,2.65.49,3.99.49,6.98.03,13.97.14,20.95-.03,3.08-.07,3.44,1.43,3.48,3.95.04,2.62-.52,3.88-3.53,3.79-7.54-.21-15.09-.01-22.64-.12-9.14-.13-12.96-3.87-13.22-12.91-.12-4.16-.12-8.34.05-12.5.28-6.89,4.07-10.98,10.97-11.26,8.55-.35,17.12-.18,25.68-.29,3.09-.04,2.55,2.11,2.63,3.98.09,2.08,0,3.81-2.89,3.78-7.43-.09-14.87-.02-22.3,0-2.83.01-5.1.8-5.75,4.03-.45,2.23-.03,3.27,2.62,3.22,8.11-.15,16.22.05,24.33-.11,2.85-.06,3.63.91,3.66,3.68.03,2.87-1.18,3.38-3.65,3.29-4.05-.15-8.11-.04-12.16-.04Z"/>
        <path class="cls-1" d="M770,208.45c6.16.87,12.35.08,18.53.32,1.91.07,3.83.01,5.69.59,4.74,1.49,6.52,5.8,5.62,13.68-.51,4.46-3.23,7.19-7.76,7.42-4.83.25-9.67.25-14.5.35-4.68-.04-9.35-.08-14.02-.14-1.2-.02-2.48.28-3.46-.76-.02-1.94-.03-3.88-.04-5.81.98-1.26,2.38-1.04,3.71-1.04,4.6-.03,9.19-.06,13.79-.1,3.69.07,7.38.16,11.07.22,2.52.04,3.23-1.48,3.21-3.71-.01-2.24-.38-4.11-3.2-4.08-3.69.04-7.39.11-11.08.17-3.04-.04-6.09.03-9.12-.13-5.11-.26-8.05-3.22-8.4-8.34-.09-1.35-.06-2.7-.04-4.06.08-5.77,2.32-8.34,8.08-9.31,9.01.03,18.02.18,27.03.02,3.01-.05,3.49,1.19,3.53,3.8.04,2.77-.81,3.78-3.66,3.71-6.87-.18-13.75-.09-20.62-.08-1.22,0-2.48-.26-3.65.34-3.11,1.48-3.39,4.21-.69,6.91Z"/>
        <path class="cls-1" d="M699.31,212.27c0,5.07-.12,10.14.05,15.2.08,2.52-.72,3.33-3.26,3.28-5.16-.1-5.17.03-5.17-5.09,0-2.59-.09-5.18.03-7.77.09-1.82-.64-2.3-2.36-2.28-6.53.08-13.06.09-19.59,0-1.75-.02-2.39.46-2.32,2.26.13,3.37-.06,6.76.07,10.13.08,2.09-.75,2.87-2.76,2.71-1.12-.09-2.25-.05-3.38-.01-1.53.05-2.26-.59-2.26-2.18.02-10.81.03-21.62,0-32.43,0-1.76.81-2.44,2.47-2.39,1.13.03,2.25.05,3.38,0,1.88-.1,2.6.74,2.55,2.62-.09,3.38.04,6.76-.05,10.13-.05,1.6.47,2.16,2.11,2.14,6.64-.07,13.29-.08,19.93,0,1.89.02,2.26-.82,2.22-2.45-.08-3.15.06-6.31-.05-9.46-.08-2.16.72-2.97,2.92-3.02,5.48-.13,5.48-.22,5.48,5.11,0,4.5,0,9.01,0,13.51Z"/>
        <path class="cls-1" d="M632.55,230.63c-4.17,0-8.34.14-12.5-.03-7.42-.3-11.05-3.85-11.69-11.27-.43-4.94-.43-9.9.06-14.84.63-6.36,3.97-10.15,10.28-10.45,8.99-.43,18.01-.3,27.01-.31,3.53,0,1.99,2.82,2.22,4.52.25,1.75.17,3.39-2.44,3.36-7.09-.08-14.19-.04-21.28-.01-6.31.03-7.54,1.25-7.6,7.46-.03,2.48-.05,4.96.02,7.43.13,5,1.55,6.45,6.5,6.48,7.09.05,14.19.18,21.28-.06,3.23-.11,3.62,1.26,3.66,3.98.04,2.84-.56,4.1-3.71,3.88-3.92-.27-7.88-.07-11.82-.07v-.07Z"/>
        <path class="cls-1" d="M998.86,229.85c-40.6,0-81.2,0-121.8,0q-4.5,0-4.5-4.65c0-9.36.12-18.72-.07-28.08-.06-3.09.81-4.04,3.96-4.03,33.38.11,66.75.07,100.13.07,47.92,0,95.85-.02,143.77-.04,5.14,0,5.15-.02,5.15,5.07,0,8.91.02,17.82,0,26.73-.01,5.45.63,4.98-5.16,4.98-40.49,0-80.98,0-121.46,0v-.04Z"/>
        <path class="cls-1" d="M1122.71,106.16c0,13.76,0,27.51,0,41.27,0,1.24,0,2.48,0,3.72-.12,12.65-3.95,16.5-16.61,16.6-4.74.04-9.48-.2-14.2,0-6.43.27-11.28-2.27-15.1-7.34-8.35-11.07-16.8-22.06-25.23-33.08-11.78-15.41-23.56-30.81-35.34-46.21-.41-.54-.84-1.06-1.23-1.61-1.05-1.47-2.55-1.98-4.16-1.44-1.56.52-1.02,2.1-1.02,3.25-.01,26.5,0,52.99.02,79.49,0,1.01,0,2.03-.02,3.04-.04,2.63-1.32,3.9-4,3.88-5.3-.05-10.6.04-15.9-.02-3.73-.04-4.56-.89-4.57-4.65-.03-10.49.02-20.97.02-31.46,0-20.07-.02-40.14.01-60.21.02-13.67,3.82-17.4,17.56-17.41,4.4,0,8.8.07,13.19,0,6.7-.09,11.78,2.56,15.84,8.01,11.12,14.92,22.5,29.63,33.78,44.42,8.75,11.48,17.5,22.95,26.26,34.42.41.54.87,1.04,1.26,1.59.99,1.36,2.37,1.8,3.88,1.32,1.55-.49,1.19-2.01,1.21-3.19.05-4.51.02-9.02.02-13.53,0-22.21,0-44.43,0-66.64,0-6.03.4-6.42,6.58-6.42,4.06,0,8.12-.02,12.18,0,4.72.03,5.53.83,5.53,5.49.01,15.56,0,31.12,0,46.68h.04Z"/>
        <path class="cls-1" d="M827.15,230.56c-4.62,0-9.25-.19-13.86.07-3.01.17-3.28-1.28-3.26-3.64.02-2.29.14-3.89,3.17-3.83,8,.15,16.01-.01,24.01.08,2.81.03,4.46-.55,4.43-3.89-.03-3.17-1.36-4.09-4.33-4.01-5.86.15-11.72.09-17.58.03-6.58-.07-9.48-2.93-9.69-9.46-.04-1.35-.05-2.71.05-4.05.36-4.77,2.93-7.71,7.64-7.84,9.46-.25,18.93-.15,28.4-.16,3.35,0,1.94,2.61,2.18,4.23.29,1.93-.2,3.2-2.65,3.17-7.89-.1-15.78.01-23.67-.05-2.75-.02-3.87,1.18-3.82,3.88.04,2.48.96,3.75,3.62,3.72,5.75-.08,11.5-.02,17.25-.02,3.83,0,7.87.22,9.55,4.26,1.9,4.57,2.06,9.51-.28,14.05-1.34,2.6-4.09,3.41-6.94,3.43-4.73.03-9.47,0-14.2,0v.03Z"/>
      </g>
      <g>
        <path class="cls-1" d="M0,148.31C.42,65.41,66.97-.06,148.56,0c81.97.06,148.36,66,148.3,148.49-.06,81.92-65.8,148.03-148.48,148.39C65.32,296.36.27,229.9,0,148.31ZM2.38,147.09c-.53,80.11,62.91,146.48,144.53,147.42,80.99.94,147.43-63.72,147.68-145.71.25-80.38-63.66-144.63-142.78-146.4C70.41.58,3.38,65.21,2.38,147.09Z"/>
        <path class="cls-1" d="M259.15,148.5c-.23,61.15-49.24,110.58-110.69,110.53-61.65-.05-110.58-49.69-110.52-110.66.06-61.29,49.28-110.51,110.6-110.49,61.56.02,110.43,49.51,110.61,110.62ZM256.77,148.57c-.15-60.31-48.65-108.25-108.15-108.3-59.48-.06-108.11,47.85-108.27,107.93-.16,59.05,47.09,108.4,108.15,108.44,60.49.04,107.99-48.59,108.27-108.06Z"/>
        <path class="cls-1" d="M147.37,269.61c.8-.02,1.62-.1,2.44-.03.29.02.61.35.82.61,1.77,2.2,3.53,4.42,5.29,6.63.2.25.42.49.82.68-.11-2.7-.22-5.4-.33-8.22,1.04-.12,2.02-.08,3.13-.11.18,4.57.36,9.08.54,13.68-.9.05-1.69.09-2.48.14-.45.03-.62-.34-.84-.61-1.78-2.24-3.55-4.49-5.33-6.73-.2-.25-.41-.48-.62-.72-.07.02-.13.04-.2.06.11,2.7.21,5.4.32,8.23-1.03.05-1.98.1-2.9.15-.28-.75-.84-12.53-.66-13.76Z"/>
        <path class="cls-1" d="M22.1,150.51c-1.36.06-2.72.13-4.08.19-1.33.06-2.66.11-4.06.17-.29-1.02-.13-2.01-.22-3.12,4.59-.18,9.1-.37,13.74-.55.03.93.1,1.79.05,2.63-.02.26-.35.53-.6.73-2.18,1.75-4.37,3.49-6.56,5.23-.27.22-.54.44-.81.67.03.07.06.15.08.22,2.7-.11,5.4-.21,8.2-.32v3.12c-4.48.18-8.96.35-13.47.53-.3-.89-.26-1.75-.21-2.6.01-.25.35-.53.6-.72,2.21-1.77,4.44-3.52,6.65-5.27.28-.22.54-.45.81-.67l-.12-.22Z"/>
        <path class="cls-1" d="M282.92,137.19c.05.77.15,1.56.11,2.35-.02.29-.35.62-.61.83-2.18,1.75-4.38,3.48-6.57,5.21-.28.23-.56.46-.93.76.76.34,1.44.09,2.1.1.7,0,1.4-.08,2.09-.11.66-.03,1.33-.05,2-.06.69,0,1.39,0,2.18,0v3.01c-4.45.28-8.96.34-13.57.59-.05-.89-.15-1.72-.1-2.53.02-.29.35-.61.61-.83,2.18-1.75,4.37-3.49,6.56-5.23.28-.22.55-.46.95-.8-1.06-.22-1.94,0-2.81,0-.93.01-1.86.09-2.79.11-.89.02-1.78,0-2.78,0-.05-.93-.1-1.88-.15-2.8.77-.3,12.51-.81,13.71-.6Z"/>
        <path class="cls-1" d="M149.38,13.81c.18,4.53.35,9.01.53,13.58-.9.05-1.69.15-2.47.1-.29-.02-.63-.33-.84-.59-1.67-2.07-3.32-4.16-4.98-6.25-.31-.39-.63-.77-1.06-1.31-.23,1.51.05,2.84.08,4.16.03,1.36,0,2.73,0,4.23-.89.04-1.87.09-2.99.15-.18-4.58-.36-9.08-.55-13.69.89-.06,1.71-.18,2.52-.14.29.01.61.36.82.63,1.79,2.23,3.56,4.49,5.34,6.73.19.25.41.47.8.63-.11-2.7-.23-5.41-.34-8.09.72-.26,1.82-.32,3.13-.16Z"/>
        <path class="cls-1" d="M29.99,170.5c.1,4.09-2.48,7.08-6.97,7.35-3.51.21-6.08-1.66-7.1-5.03-.4-1.32-.54-2.68-.32-4.04.53-3.24,3.05-5.42,6.5-5.73,4.81-.44,7.3,2.78,7.82,6.47.06.39.06.79.08.99ZM22.59,174.81c.76-.21,1.57-.32,2.28-.65,1.45-.66,2.24-1.83,2.3-3.44.12-3.35-2.65-5.35-5.93-4.28-2.09.69-3.21,2.49-2.86,4.63.36,2.25,1.97,3.63,4.21,3.73Z"/>
        <path class="cls-1" d="M274.31,134.06c-3.05-.09-5.13-1.4-6.33-4.01-.68-1.47-.96-3.05-.78-4.67.38-3.33,2.66-5.65,6.02-6.08.98-.12,2-.13,2.97.03,1.6.26,2.91,1.12,3.86,2.45,1.31,1.84,1.83,3.91,1.55,6.14-.4,3.22-2.5,5.37-5.69,5.95-.59.11-1.19.14-1.6.19ZM274.24,130.95c.58-.12,1.18-.19,1.74-.37,1.94-.62,3.07-2.33,2.86-4.27-.25-2.29-1.63-3.79-3.77-3.95-.71-.05-1.47.07-2.15.27-2.07.61-3.21,2.46-2.89,4.52.36,2.33,1.94,3.73,4.21,3.8Z"/>
        <path class="cls-1" d="M134.2,22.91c-.11,3.57-2.42,6.23-6.13,6.84-1,.16-2.06.19-3.06.06-2.7-.36-4.42-2-5.31-4.52-.42-1.17-.55-2.4-.43-3.64.22-2.12,1.22-3.79,3.04-4.9,2.01-1.22,4.21-1.63,6.52-1.11,2.44.55,4.04,2.11,4.8,4.46.29.9.39,1.88.57,2.82ZM122.41,22.65c.01.15.03.45.08.75.39,2.45,2.32,4,4.61,3.71,2.64-.34,4.12-2.24,3.8-4.88-.04-.36-.13-.72-.24-1.07-.66-2.06-2.46-3.18-4.54-2.85-2.34.37-3.73,1.94-3.7,4.34Z"/>
        <path class="cls-1" d="M170.1,281.66c-3.55-.06-6.27-2.31-6.84-5.81-.16-.97-.17-1.99-.06-2.97.21-1.85,1.18-3.3,2.73-4.33,2.04-1.35,4.31-1.75,6.68-1.27,2.83.58,4.76,2.83,5.22,5.86.16,1.09.19,2.19-.1,3.27-.59,2.23-2.04,3.68-4.13,4.53-.49.2-1.01.34-1.53.44-.65.13-1.31.19-1.97.28ZM170.56,269.93c-2.61.02-4.35,1.75-4.32,4.3.03,2.69,1.81,4.58,4.25,4.55,2.53-.04,4.34-1.84,4.3-4.27-.04-2.7-1.8-4.6-4.23-4.58Z"/>
        <path class="cls-1" d="M122.3,280.84c-1.05-.26-1.97-.49-3.02-.75.41-1.74.81-3.43,1.23-5.21-1.96-.48-3.81-.93-5.77-1.4-.44,1.75-.86,3.38-1.29,5.12-1-.12-1.94-.39-3.02-.7,1.05-4.44,2.14-8.84,3.27-13.33,1.04.26,1.99.49,3.01.74-.43,1.82-.85,3.55-1.29,5.4,1.94.48,3.8.93,5.76,1.42.46-1.82.9-3.54,1.36-5.37.99.23,1.91.45,2.98.7-.22,1.53-.68,2.97-1.03,4.43-.34,1.46-.7,2.91-1.05,4.36-.36,1.48-.74,2.96-1.14,4.58Z"/>
        <path class="cls-1" d="M16.28,122.24c.25-1.02.47-1.94.72-2.97,1.77.21,3.41.87,5.24,1.12.46-1.9.92-3.75,1.4-5.72-1.76-.44-3.42-.86-5.18-1.3.24-1.01.46-1.94.72-3.01,4.46,1.04,8.86,2.15,13.36,3.26-.25,1.02-.48,1.97-.74,3.01-1.81-.43-3.55-.84-5.4-1.28-.48,1.94-.93,3.79-1.42,5.76,1.81.46,3.54.89,5.37,1.35-.24,1.01-.46,1.96-.72,3.05-4.47-1.1-8.87-2.18-13.35-3.28Z"/>
        <path class="cls-1" d="M182.44,23.58c.44-1.76.85-3.42,1.29-5.19,1.02.25,1.97.47,3.03.73-1.1,4.47-2.17,8.85-3.27,13.35-1.04-.25-1.99-.49-3.02-.74.43-1.79.84-3.5,1.27-5.32-1.87-.64-3.78-.97-5.75-1.5-.46,1.81-.9,3.53-1.36,5.37-1.03-.25-1.98-.47-3.04-.72,1.1-4.47,2.17-8.85,3.27-13.32.55.12,1.03.21,1.5.32.48.11.95.25,1.55.41-.41,1.72-.81,3.38-1.24,5.17,1.92.48,3.75.94,5.77,1.44Z"/>
        <path class="cls-1" d="M265.38,180.39c1.86.45,3.57.86,5.4,1.3.48-1.94.94-3.8,1.42-5.76-1.79-.45-3.52-.89-5.38-1.36.24-1.01.47-1.95.74-3.04,4.46,1.09,8.84,2.17,13.33,3.27-.24,1.04-.47,1.99-.71,3.05-1.75-.42-3.42-.81-5.21-1.24-.48,1.93-.94,3.78-1.43,5.76,1.73.44,3.39.86,5.18,1.32-.24,1-.47,1.95-.72,3.02-4.46-1.09-8.83-2.17-13.34-3.27.25-1.04.48-1.99.73-3.03Z"/>
        <path class="cls-1" d="M272.78,201.19c-.86-.32-1.6-.6-2.43-.91.86-2.33,1.7-4.59,2.57-6.95-.92-.35-1.74-.66-2.69-1.02-.84,2.21-1.65,4.34-2.5,6.56-.78-.29-1.48-.55-2.28-.85.67-2.23,1.63-4.31,2.36-6.61-.92-.35-1.81-.68-2.81-1.06-1.02,2.34-1.76,4.74-2.76,7.12-.82-.31-1.56-.58-2.43-.91,1.25-3.35,2.48-6.63,3.75-10.01,4.32,1.62,8.55,3.2,12.88,4.83-1.22,3.27-2.42,6.46-3.67,9.81Z"/>
        <path class="cls-1" d="M98.23,267.66c.32-.83.58-1.54.88-2.33,2.21.82,4.35,1.6,6.58,2.43.37-.99.7-1.87,1.07-2.86-2.39-.91-4.71-1.79-7.13-2.71.31-.83.59-1.6.91-2.45,3.36,1.26,6.64,2.49,10.01,3.75-1.62,4.32-3.2,8.54-4.83,12.88-3.27-1.22-6.46-2.42-9.79-3.66.3-.82.57-1.58.89-2.45,2.34.87,4.6,1.71,6.95,2.58.35-.93.68-1.78,1.03-2.7-2.24-.85-4.34-1.64-6.57-2.49Z"/>
        <path class="cls-1" d="M34.91,99.63c.26.06.43.07.58.13.59.22,1.17.45,1.88.73-1.25,3.32-2.48,6.61-3.75,10-4.33-1.63-8.58-3.22-12.89-4.83,1.24-3.31,2.44-6.51,3.68-9.81.81.31,1.55.58,2.39.9-.71,2.35-1.72,4.55-2.48,6.88.79.55,1.72.69,2.64,1.12.84-2.22,1.65-4.34,2.5-6.57.79.29,1.5.55,2.33.86-.81,2.19-1.6,4.32-2.43,6.57.94.36,1.83.7,2.82,1.09,1.02-2.32,1.74-4.7,2.74-7.06Z"/>
        <path class="cls-1" d="M186.62,33.54c1.63-4.36,3.21-8.55,4.83-12.88,3.28,1.23,6.5,2.43,9.81,3.67-.32.84-.6,1.6-.92,2.44-2.33-.86-4.56-1.7-6.85-2.55-.53.82-.73,1.72-1.09,2.68,2.17.82,4.3,1.63,6.54,2.48-.29.78-.55,1.48-.85,2.29-2.23-.69-4.31-1.62-6.59-2.38-.36.93-.7,1.82-1.09,2.84,2.35.89,4.67,1.77,7.02,2.67-.05.88-.48,1.59-.82,2.48-3.32-1.24-6.6-2.47-9.98-3.74Z"/>
        <path class="cls-1" d="M266.24,82.7c.46.92.88,1.77,1.34,2.7-.34.19-.62.36-.91.5-1.88.94-3.75,1.87-5.63,2.81-.42.21-.84.42-1.21.7-1.35.99-1.67,2.41-.92,3.88.73,1.41,2.07,1.97,3.62,1.48.44-.14.87-.34,1.28-.55,1.85-.91,3.7-1.84,5.54-2.76.29-.15.59-.28,1-.47.46.92.9,1.8,1.37,2.72-.25.16-.43.3-.63.4-2.05,1.03-4.11,2.05-6.17,3.08-1.08.54-2.2.94-3.43.93-1.18-.01-2.24-.36-3.14-1.11-1.65-1.4-2.57-3.22-2.78-5.36-.16-1.58.39-2.96,1.53-4.06.5-.48,1.07-.93,1.68-1.24,2.33-1.21,4.7-2.37,7.05-3.54.08-.04.19-.05.39-.1Z"/>
        <path class="cls-1" d="M214.45,266.15c-.9.45-1.78.89-2.73,1.37-.2-.36-.37-.64-.52-.93-.94-1.87-1.87-3.76-2.81-5.63-.22-.44-.46-.89-.76-1.29-.99-1.29-2.37-1.58-3.81-.83-1.34.7-1.92,1.96-1.53,3.43.13.48.34.94.56,1.38.92,1.88,1.87,3.75,2.8,5.63.15.29.28.59.47,1-.92.46-1.8.9-2.72,1.36-.16-.25-.3-.43-.4-.63-1.05-2.08-2.09-4.16-3.12-6.25-.52-1.05-.9-2.14-.88-3.35.02-1.22.38-2.31,1.18-3.21,1.48-1.67,3.35-2.61,5.59-2.71,1.44-.06,2.7.44,3.69,1.47.57.6,1.08,1.28,1.46,2.01,1.15,2.18,2.22,4.4,3.31,6.6.07.15.12.3.22.55Z"/>
        <path class="cls-1" d="M91.06,26.73c.92-.46,1.8-.9,2.71-1.36.12.17.24.29.31.43,1.12,2.23,2.26,4.45,3.32,6.7.35.74.59,1.56.71,2.37.28,1.93-.43,3.53-1.93,4.76-1.18.97-2.53,1.61-4.04,1.84-1.6.25-3.05-.17-4.25-1.27-.48-.44-.96-.96-1.26-1.53-1.34-2.52-2.61-5.08-3.97-7.76.94-.48,1.82-.92,2.77-1.4.17.28.33.52.46.77.99,1.96,1.96,3.93,2.95,5.89.18.36.37.71.6,1.04.98,1.37,2.38,1.72,3.86.99,1.42-.7,2.01-2.01,1.56-3.58-.12-.41-.31-.81-.5-1.19-.94-1.91-1.9-3.81-2.84-5.72-.15-.29-.27-.59-.46-.99Z"/>
        <path class="cls-1" d="M26.8,206.05c-.46-.92-.89-1.8-1.35-2.72.24-.16.42-.3.62-.4,2.08-1.04,4.16-2.08,6.25-3.12.9-.45,1.83-.78,2.84-.86,1.58-.12,2.97.34,4.08,1.47,1.3,1.32,2.1,2.9,2.31,4.75.22,1.9-.46,3.46-1.93,4.67-.46.38-.96.72-1.49.99-2.22,1.14-4.45,2.24-6.68,3.35-.12.06-.25.09-.47.16-.23-.43-.46-.85-.68-1.28-.23-.44-.44-.88-.7-1.4.3-.18.54-.34.79-.47,1.99-1,4-1.97,5.97-3,.58-.3,1.15-.69,1.6-1.16.89-.95.93-2.18.22-3.42-.65-1.15-1.78-1.73-3.01-1.47-.55.11-1.09.32-1.59.56-1.94.95-3.87,1.92-5.8,2.89-.29.15-.6.27-.99.45Z"/>
        <path class="cls-1" d="M265.24,213.68c-.43-.77-.83-1.48-1.26-2.24.28-.22.51-.4.74-.57.98-.75,1.71-1.69,2.08-2.86.15-.46.22-.98.18-1.46-.08-.94-.99-1.38-1.75-.84-.48.34-.86.82-1.24,1.28-.48.59-.88,1.26-1.38,1.83-.41.47-.89.9-1.4,1.27-2.51,1.8-5.58-.17-5.86-2.46-.1-.81-.13-1.69.07-2.47.71-2.69,2.25-4.79,4.71-6.17.08-.05.19-.06.39-.13.41.77.82,1.55,1.25,2.36-.32.21-.56.37-.8.53-1.22.83-2.11,1.94-2.6,3.32-.15.43-.2.9-.23,1.36-.03.5.21.92.67,1.14.49.23,1,.17,1.4-.21.43-.41.81-.87,1.18-1.34.47-.6.89-1.24,1.38-1.83.29-.36.64-.68,1.01-.97,1.14-.92,2.4-1.1,3.74-.49,1.35.62,2.12,1.68,2.27,3.16.13,1.26-.15,2.45-.7,3.58-.84,1.75-2.05,3.17-3.84,4.2Z"/>
        <path class="cls-1" d="M198.91,36.58c.82-.43,1.58-.82,2.37-1.24.21.33.39.6.58.87.85,1.21,1.96,2.09,3.35,2.56.46.15.98.23,1.46.18.96-.1,1.42-1.06.87-1.85-.33-.48-.82-.87-1.28-1.24-.67-.54-1.4-1.02-2.07-1.56-.33-.27-.63-.6-.9-.93-.91-1.13-1.14-2.37-.52-3.73.62-1.35,1.66-2.14,3.14-2.3,1.37-.15,2.64.18,3.85.8,1.63.84,2.97,1.98,3.95,3.71-.75.44-1.45.85-2.2,1.29-.19-.24-.36-.44-.51-.64-.73-.99-1.66-1.74-2.82-2.14-.46-.16-.97-.25-1.46-.24-1.08.04-1.56,1.07-.87,1.91.44.53,1.05.91,1.57,1.36.83.72,1.7,1.39,2.46,2.17.69.71,1,1.63.94,2.65-.1,1.67-1.38,3.25-3.03,3.51-.84.13-1.76.16-2.56-.04-2.66-.68-4.73-2.21-6.13-4.6-.07-.11-.09-.24-.19-.51Z"/>
        <path class="cls-1" d="M210.78,42.52c.85-.33,1.65-.64,2.47-.97.19.36.34.65.5.94.73,1.33,1.78,2.32,3.15,2.95.41.18.9.28,1.34.28.97-.01,1.48-.88,1.06-1.75-.15-.32-.39-.62-.65-.88-.4-.4-.86-.74-1.25-1.14-.64-.67-1.32-1.32-1.86-2.07-.83-1.14-.94-2.4-.27-3.67.69-1.31,1.77-2.07,3.27-2.08.62,0,1.28.04,1.87.23,2.56.84,4.39,2.51,5.61,5.06-.82.36-1.56.69-2.36,1.04-.19-.31-.35-.55-.5-.8-.62-1.02-1.45-1.81-2.52-2.34-.32-.16-.68-.29-1.03-.36-.58-.12-1.15-.08-1.5.5-.33.56-.19,1.11.22,1.56.44.49.92.96,1.42,1.4.87.78,1.71,1.58,2.26,2.64.78,1.49.57,3.1-.55,4.35-.84.93-1.92,1.33-3.13,1.29-3.02-.1-6.67-3.06-7.55-6.17Z"/>
        <path class="cls-1" d="M21.28,188.88c.8.19,1.57.37,2.41.58-.02.29-.04.54-.07.79-.18,1.3.05,2.52.65,3.67.2.38.46.74.78,1.02.82.7,1.85.32,2-.76.06-.45,0-.93-.09-1.38-.24-1.34-.57-2.67-.44-4.05.16-1.73,1.11-2.92,2.77-3.4,1.07-.3,2.15-.22,3.06.44.66.48,1.31,1.06,1.75,1.74,1.46,2.24,1.93,4.71,1.39,7.35-.05.22-.15.43-.26.74-.86-.24-1.68-.46-2.55-.71.04-.32.05-.58.1-.83.31-1.49.07-2.92-.57-4.27-.21-.44-.53-.87-.9-1.18-.87-.73-1.94-.29-2.02.84-.05.68.07,1.39.18,2.07.2,1.28.51,2.52.29,3.85-.4,2.42-3.2,3.52-5.1,2.62-.67-.32-1.3-.82-1.8-1.38-1.79-2.01-2.37-5.72-1.59-7.75Z"/>
        <path class="cls-1" d="M188.93,275.92c.21-.9.4-1.66.6-2.51.33.03.62.05.9.09,1.34.17,2.58-.11,3.75-.76.31-.17.61-.42.84-.69.68-.82.3-1.85-.77-2-.45-.06-.93,0-1.38.08-1.34.25-2.67.58-4.05.45-2.04-.2-3.46-1.64-3.55-3.66-.06-1.36.54-2.45,1.52-3.33,1.09-.98,2.39-1.54,3.8-1.89,1.44-.36,2.89-.43,4.35-.09.22.05.43.14.75.25-.25.87-.48,1.68-.72,2.56-.31-.04-.57-.06-.82-.11-1.56-.3-3.05-.07-4.45.67-.37.2-.71.49-1.01.8-.35.36-.43.83-.24,1.3.19.48.58.74,1.09.74.6,0,1.2-.04,1.79-.12.76-.1,1.5-.31,2.26-.39.59-.06,1.19-.02,1.78.04,2.49.25,3.69,3.27,2.68,5.18-.31.58-.7,1.16-1.19,1.57-2.27,1.88-4.88,2.4-7.93,1.82Z"/>
        <path class="cls-1" d="M254.57,210.7c.33.84.65,1.63.98,2.48-.34.18-.63.33-.91.48-1.33.72-2.34,1.77-2.96,3.14-.2.44-.3.96-.28,1.44.03.92.9,1.45,1.69.99.59-.34,1.08-.86,1.58-1.34.8-.75,1.53-1.57,2.36-2.29.58-.51,1.3-.79,2.1-.81,1.97-.05,3.73,1.47,3.83,3.44.04.75-.03,1.55-.27,2.26-.78,2.3-2.29,4.02-4.44,5.18-.12.06-.24.11-.37.15-.06.02-.13,0-.29-.01-.3-.68-.61-1.41-.96-2.2.32-.2.58-.38.86-.54,1.08-.66,1.9-1.57,2.39-2.73.19-.44.28-.97.26-1.45-.04-.78-.8-1.21-1.52-.92-.33.14-.64.36-.9.6-.43.41-.79.91-1.23,1.31-.73.68-1.44,1.39-2.26,1.94-1.27.84-2.63.84-3.95.02-1.38-.86-1.97-2.16-1.86-3.73.22-3.04,3.03-6.45,6.14-7.41Z"/>
        <path class="cls-1" d="M108.25,21.16c-.22.89-.41,1.63-.61,2.46-.42-.03-.81-.07-1.2-.09-1.3-.09-2.52.18-3.62.88-.84.53-1.15,1.18-.93,1.8.22.6.75.88,1.76.78,1.05-.11,2.1-.36,3.15-.47.65-.07,1.33-.06,1.98.04,2.26.33,3.66,2.69,2.95,4.87-.34,1.06-1.01,1.88-1.91,2.48-2.42,1.63-5.07,2.08-7.9,1.44-.12-.03-.23-.11-.42-.21.23-.84.46-1.66.7-2.52.29.04.51.06.73.1,1.48.28,2.93.14,4.28-.52.49-.24.98-.59,1.32-1.02.63-.78.21-1.81-.79-1.95-.55-.07-1.12.02-1.68.09-1.12.14-2.23.4-3.35.45-1.63.08-2.93-.57-3.59-2.15-.68-1.61-.36-3.07.82-4.33,1.29-1.36,2.95-2.03,4.76-2.29.85-.12,1.72-.05,2.59-.03.28,0,.56.12.96.2Z"/>
        <path class="cls-1" d="M262.05,101.43c.78.23,1.62.47,2.51.73-.37,1.44-.43,2.8.04,4.12.24.68.61,1.32,1.02,1.92.34.49.91.7,1.51.46.61-.23.84-.75.8-1.36-.04-.63-.16-1.25-.24-1.87-.12-1.05-.34-2.11-.33-3.16.02-3.11,3.48-4.37,5.56-3.04.68.44,1.32,1.04,1.78,1.7,1.37,1.97,1.72,4.22,1.42,6.57-.02.19-.11.37-.21.67-.83-.21-1.61-.4-2.25-.56-.12-1.26-.12-2.39-.36-3.48-.15-.68-.61-1.31-1.03-1.9-.29-.41-.77-.65-1.33-.44-.57.21-.84.66-.82,1.24.01.53.07,1.06.16,1.58.23,1.28.47,2.53.34,3.85-.28,2.88-3.57,4.22-5.79,2.79-.6-.39-1.18-.91-1.58-1.49-1.65-2.36-2.1-4.98-1.51-7.79.02-.1.04-.2.08-.29.02-.06.08-.1.23-.26Z"/>
        <path class="cls-1" d="M98.38,260.39c-.9.48-1.66.87-2.46,1.3-.2-.29-.37-.52-.53-.76-.82-1.23-1.93-2.1-3.31-2.63-.28-.11-.57-.2-.86-.24-.74-.12-1.39.14-1.66.64-.28.52-.16,1.15.42,1.71.43.41.94.74,1.4,1.12.72.58,1.49,1.12,2.15,1.77,1.14,1.12,1.55,2.47.91,4.01-.66,1.58-1.9,2.35-3.57,2.44-.46.02-.94-.03-1.39-.13-2.6-.58-4.57-2.05-6.07-4.42.76-.43,1.47-.83,2.25-1.27.21.26.39.48.57.71.72.95,1.64,1.65,2.75,2.08.28.11.57.2.86.25.85.14,1.43-.12,1.7-.71.31-.68-.08-1.17-.52-1.58-.44-.41-.95-.72-1.41-1.11-.76-.64-1.58-1.24-2.24-1.97-1.06-1.18-1.39-2.56-.68-4.07.72-1.54,1.96-2.33,3.65-2.33,2.84,0,5,1.41,6.82,3.44.44.49.76,1.08,1.23,1.76Z"/>
        <path class="cls-1" d="M39.51,71.08c.36.84.67,1.56,1.01,2.35-.24.15-.44.3-.67.43-1.04.59-1.84,1.42-2.41,2.47-.13.23-.24.48-.32.73-.3.9-.18,1.54.35,1.91.53.36,1.17.25,1.88-.41.44-.41.8-.9,1.23-1.3.75-.7,1.5-1.41,2.32-2.03.68-.51,1.51-.68,2.37-.59,1.89.21,3.37,1.74,3.43,3.68.03.72-.06,1.48-.3,2.15-.92,2.55-2.62,4.44-5.07,5.63-.2.1-.43.14-.72.24-.33-.83-.65-1.62-.99-2.46.28-.16.5-.29.73-.41,1.32-.67,2.34-1.66,3.01-2.96.25-.49.4-1.07.42-1.61.02-1.03-.91-1.57-1.8-1.06-.51.29-.93.74-1.35,1.16-.52.52-.97,1.1-1.49,1.61-.33.33-.7.62-1.08.88-1.18.83-2.44,1.02-3.76.34-1.4-.72-2.16-1.89-2.12-3.46.02-.81.21-1.66.52-2.41.91-2.21,2.49-3.82,4.81-4.9Z"/>
        <path class="cls-1" d="M71.16,257.59c.84-.36,1.57-.67,2.35-1.01.19.3.36.58.54.85.8,1.25,1.85,2.18,3.29,2.59.31.09.67.13.98.06.77-.15,1.16-.91.8-1.6-.24-.46-.61-.87-.98-1.24-.49-.5-1.07-.91-1.54-1.42-.49-.53-.99-1.09-1.35-1.72-1.45-2.53.23-5.59,3.15-5.71.72-.03,1.48.06,2.15.3,2.52.9,4.39,2.58,5.59,4.99.11.23.17.49.28.81-.84.34-1.63.65-2.47.99-.17-.32-.32-.57-.45-.83-.68-1.32-1.7-2.3-3.01-2.96-.46-.23-1.01-.37-1.53-.37-1.02,0-1.55.92-1.04,1.81.28.48.69.89,1.09,1.29.52.52,1.1.97,1.62,1.48.33.32.63.69.9,1.07.92,1.27,1.11,2.62.3,4.02-.83,1.45-2.13,2.05-3.76,1.96-1.08-.06-2.08-.44-3-1-1.7-1.01-3.02-2.37-3.9-4.35Z"/>
        <path class="cls-1" d="M31.92,83.33c.48.84.86,1.53,1.28,2.27-.27.21-.5.39-.73.57-1.09.84-1.84,1.91-2.22,3.23-.28.97-.05,1.73.56,2.04.59.29,1.2.07,1.88-.74.36-.43.64-.93,1.01-1.36.7-.79,1.35-1.66,2.18-2.31,2.37-1.85,5.68-.16,6.01,2.67.08.68.04,1.41-.12,2.08-.58,2.5-2,4.47-4.11,5.92-.27.18-.57.32-.98.55-.44-.83-.85-1.6-1.28-2.41.36-.24.63-.42.9-.61,1.21-.85,2.06-1.98,2.56-3.36.12-.34.19-.71.22-1.07.03-.57-.18-1.05-.7-1.33-.55-.3-1.06-.14-1.46.26-.45.44-.82.95-1.22,1.44-.61.75-1.15,1.56-1.82,2.24-1.14,1.16-2.49,1.63-4.08.95-1.62-.7-2.46-1.97-2.41-3.68.1-3.22,1.8-5.52,4.54-7.34Z"/>
        <path class="cls-1" d="M126.35,279.68c.72-.57,1.36-1.08,2.05-1.63.25.2.48.38.7.57.72.58,1.53.91,2.46.99,1.79.16,3.25-.41,4.1-2.04.88-1.71.96-3.47-.21-5.1-1.17-1.64-3.65-2.11-5.7-1.16-.27.12-.52.27-.84.43-.21-.28-.42-.53-.61-.8-.3-.43-.59-.87-.92-1.35,1.35-1.1,2.86-1.57,4.48-1.53.98.02,2,.19,2.93.49,3.45,1.13,5.07,4.18,4.59,7.67-.33,2.41-1.44,4.34-3.68,5.48-2.75,1.4-6.45.86-8.65-1.24-.23-.22-.44-.48-.71-.78Z"/>
        <path class="cls-1" d="M168.3,25.29c.52.73.99,1.4,1.5,2.12-.91.86-1.99,1.28-3.13,1.46-2.07.33-4.05,0-5.85-1.11-1.48-.92-2.45-2.23-2.86-3.93-.48-1.98-.26-3.91.69-5.72,1.37-2.62,4.32-3.97,7.45-3.46,2.04.33,3.6,1.23,4.68,2.74-.66.53-1.33,1.06-2.01,1.61-.27-.23-.49-.42-.73-.6-1.45-1.15-3.54-1.34-5.06-.46-1.46.85-2.33,2.84-2.04,4.66.46,2.93,3.49,4.45,6.36,3.19.3-.13.59-.29,1.01-.5Z"/>
        <path class="cls-1" d="M271.8,168.24c-.72.51-1.4.99-2.12,1.5-.86-.93-1.28-2.01-1.46-3.15-.29-1.85-.05-3.65.82-5.33,1.44-2.76,4.18-3.95,7.3-3.51.81.12,1.62.38,2.37.72,1.62.73,2.79,1.96,3.34,3.65.99,3.06.52,5.84-1.79,8.2-.13.14-.3.24-.54.43-.56-.7-1.08-1.36-1.63-2.06.19-.23.34-.4.49-.57,1.05-1.27,1.36-2.71.96-4.3-.05-.19-.12-.38-.2-.56-.79-1.75-2.89-2.72-5.05-2.35-1.86.32-3.16,1.76-3.35,3.7-.12,1.24.03,1.92.86,3.64Z"/>
        <path class="cls-1" d="M17.46,126.29c.55.7,1.08,1.38,1.59,2.03-1.9,2.48-2.08,4.82-.55,6.48,1.44,1.55,4.2,1.88,5.97.71,1.92-1.27,2.27-3.68.93-6.73.67-.48,1.36-.96,2.08-1.47.65.63.97,1.36,1.2,2.11.74,2.39.44,4.69-.82,6.82-1.47,2.47-4.22,3.55-7.37,3.01-3.52-.61-5.76-3.23-5.83-6.79-.04-2.2.59-4.13,2.19-5.69.16-.16.36-.29.59-.47Z"/>
        <path class="cls-1" d="M258.95,82.35c-.73.48-1.41.93-2.18,1.44-1.21-1.85-2.39-3.65-3.61-5.5-1.42.92-2.75,1.78-4.16,2.69-.57-.88-1.11-1.71-1.71-2.63,3.83-2.5,7.61-4.96,11.51-7.5,1.88,2.8,3.66,5.61,5.54,8.47-.8.52-1.5.99-2.28,1.5-1.28-1.96-2.51-3.84-3.82-5.84-.94.61-1.82,1.18-2.8,1.82,1.09,1.92,2.39,3.64,3.51,5.56Z"/>
        <path class="cls-1" d="M218.76,247.21c2.53,3.89,4.99,7.67,7.51,11.53-2.84,1.85-5.62,3.66-8.48,5.52-.5-.76-.97-1.47-1.5-2.28,1.95-1.27,3.83-2.5,5.8-3.79-.53-1.01-1.16-1.88-1.82-2.86-1.83,1.19-3.6,2.34-5.49,3.56-.48-.72-.93-1.4-1.47-2.2,1.84-1.2,3.63-2.38,5.51-3.61-.9-1.39-1.75-2.72-2.68-4.16.86-.57,1.68-1.1,2.62-1.72Z"/>
        <path class="cls-1" d="M70.91,38.29c2.89-1.88,5.65-3.68,8.49-5.53.51.78.98,1.49,1.49,2.28-1.96,1.28-3.85,2.51-5.84,3.82.62.96,1.2,1.85,1.84,2.84,1.88-1.22,3.66-2.37,5.52-3.58.48.73.92,1.41,1.45,2.21-1.83,1.2-3.6,2.35-5.4,3.53.22.83.8,1.41,1.2,2.08.41.68.86,1.34,1.37,2.13-.83.62-1.69,1.16-2.63,1.72-2.5-3.84-4.96-7.62-7.49-11.51Z"/>
        <path class="cls-1" d="M44.02,218.75c.81-.52,1.48-.95,2.15-1.38.64-.41,1.28-.82,2.02-1.29.58.88,1.11,1.7,1.71,2.62-3.87,2.52-7.65,4.98-11.53,7.51-1.85-2.83-3.66-5.61-5.53-8.49.76-.5,1.47-.96,2.29-1.5,1.28,1.96,2.53,3.87,3.82,5.85.98-.64,1.86-1.21,2.84-1.85-1.19-1.83-2.34-3.61-3.57-5.51.73-.49,1.43-.95,2.2-1.46,1.22,1.87,2.38,3.64,3.61,5.51Z"/>
        <path class="cls-1" d="M244.25,57.47c-.1.72-.12,1.23-.24,1.7-.36,1.36-1.2,2.28-2.58,2.66-.95.26-1.91.26-2.86.01-1.38-.36-2.24-1.27-2.61-2.63-.26-.98-.26-1.98-.06-2.97.34-1.64,1.43-2.72,3.05-3.04,2.18-.42,4.09.42,4.83,2.24.28.69.34,1.48.46,2.02Z"/>
        <path class="cls-1" d="M244.2,239.64c-.04.42-.05.83-.12,1.22-.26,1.59-1.3,2.76-2.88,3.07-2.01.39-3.67-.03-4.67-1.44-1.19-1.68-1.02-4.79.45-6.22,1.28-1.25,2.86-1.3,4.48-.87,1.51.4,2.31,1.5,2.62,2.98.09.42.09.86.13,1.27Z"/>
        <path class="cls-1" d="M53.26,239.49c.04-.36.05-.91.19-1.41.39-1.42,1.26-2.38,2.73-2.76,2.41-.62,4.78.5,5.28,2.66.21.92.19,1.92.08,2.87-.07.62-.42,1.25-.76,1.8-.4.64-1.04,1.01-1.77,1.21-.92.26-1.85.28-2.76.08-1.59-.35-2.67-1.56-2.9-3.18-.05-.36-.05-.73-.08-1.27Z"/>
        <path class="cls-1" d="M53.18,57.52c.16-.71.22-1.46.5-2.11.77-1.82,2.67-2.64,4.85-2.18,1.7.35,2.82,1.54,3.05,3.26.07.56.11,1.13.07,1.69-.2,2.56-1.82,3.97-4.38,3.83-2.66-.14-3.98-1.62-4.08-4.49Z"/>
        <path class="cls-1" d="M111.57,19.01c1.06-.29,1.98-.54,3.04-.82,1.21,4.43,2.4,8.8,3.61,13.25-1.04.28-1.98.54-3.04.83-1.21-4.44-2.4-8.78-3.62-13.26Z"/>
        <path class="cls-1" d="M264.85,115.11c4.47-1.22,8.81-2.4,13.24-3.61.28,1.05.54,2,.82,3.04-4.42,1.2-8.73,2.38-13.18,3.59-.42-.93-.6-1.92-.88-3.03Z"/>
        <path class="cls-1" d="M185.61,278.03c-1.08.29-2.03.54-3.05.81-1.21-4.45-2.4-8.8-3.61-13.25,1.03-.28,1.98-.54,3.03-.83,1.21,4.42,2.39,8.77,3.62,13.27Z"/>
        <path class="cls-1" d="M31.52,178.88c.28,1.05.54,2,.82,3.04-4.43,1.21-8.78,2.39-13.25,3.61-.28-1.02-.55-1.96-.84-3.03,4.42-1.21,8.77-2.39,13.27-3.62Z"/>
        <path class="cls-1" d="M148.66,134.8c-16.52,0-33.04,0-49.56,0-2.52,0-4.99-.29-7.32-1.29-5.66-2.43-9.2-6.65-10.53-12.67-.26-1.16-.37-2.37-.37-3.56-.02-9.66,0-19.32,0-28.97,0-.46-.02-.94.07-1.39.28-1.43,1.4-2.47,2.86-2.7.42-.07.86-.08,1.29-.08,7.39,0,14.79,0,22.18,0,.37,0,.73,0,1.1.04,1.87.23,3.07,1.52,3.11,3.42.03,1.6,0,3.2.01,4.8,0,3.76.01,7.53.02,11.29,0,.3,0,.6.02.9.13,1.59,1.29,2.7,2.89,2.74,1.2.03,2.4,0,3.6,0,4.06,0,8.13-.06,12.19.02,2.24.05,3.43-1.59,3.42-3.41-.04-5.46.06-10.92-.05-16.38-.04-1.98,1.54-3.31,3.07-3.39.3-.02.6-.03.9-.03,7.46,0,14.92,0,22.38,0,.27,0,.53,0,.8.02,2.03.17,3.29,1.5,3.3,3.54.02,5.3.01,10.59.03,15.89,0,.53.04,1.07.16,1.58.29,1.22,1.32,2.06,2.57,2.16.13.01.27,0,.4,0,5.3,0,10.59,0,15.89,0,1.79,0,2.99-1.19,3.09-2.98.02-.3,0-.6,0-.9,0-4.4,0-8.79,0-13.19,0-1.03,0-2.06,0-3.1,0-1.42.85-2.54,2.25-2.87.45-.1.92-.15,1.38-.15,7.59,0,15.19-.01,22.78,0,.62,0,1.29.07,1.85.3,1.15.47,1.87,1.37,2.02,2.64.06.49.06,1,.07,1.5,0,8.43,0,16.85,0,25.28,0,1.63.05,3.27-.06,4.89-.54,7.81-6.55,14.44-14.27,15.72-1.34.22-2.72.3-4.07.3-16.49.02-32.97.01-49.46.01Z"/>
        <path class="cls-1" d="M148.79,153.75c13.75,0,27.51,0,41.26,0,1.48,0,2.92.15,4.24.91,2.24,1.3,3.51,3.21,3.74,5.79.04.43.06.86.06,1.3,0,6.33,0,12.66,0,18.98,0,1.59-.21,3.13-1.11,4.49-1.43,2.17-3.37,3.42-6.06,3.41-16.82-.01-33.64,0-50.46,0-.66,0-1.33.05-1.98.18-2.01.42-3.49,2-3.79,4.02-.08.52-.11,1.06-.11,1.59-.02,3.4-.02,6.79-.03,10.19,0,5.13-.08,10.26.02,15.39.08,4.01-3.09,7.63-7.55,7.61-6.63-.03-13.26-.04-19.88,0-4.46.03-7.59-3.54-7.56-7.59.06-11.76.04-23.51.02-35.27-.01-7.66-.09-15.32-.1-22.97,0-1.02.08-2.1.41-3.05,1.04-2.93,3.17-4.6,6.29-4.93.59-.06,1.2-.05,1.8-.05,13.59,0,27.18,0,40.76,0Z"/>
      </g>
    </g>
  </g>
</svg>